<svg aria-hidden="true" style="position:absolute;width:0;height:0" xmlns="http://www.w3.org/2000/svg" overflow="hidden"><defs><symbol id="icon-arrow-down" viewBox="0 0 24 24"><path d="M7.406 8.578L12 13.172l4.594-4.594L18 9.984l-6 6-6-6z"/></symbol><symbol id="icon-phone" viewBox="0 0 32 32"><path d="M27.419 20.852l-4.201-.48a3.293 3.293 0 00-2.713.943l-3.044 3.044A24.888 24.888 0 016.56 13.458l3.06-3.06a3.293 3.293 0 00.943-2.713l-.48-4.168A3.31 3.31 0 006.791.589H3.929C2.06.589.505 2.144.621 4.013c.877 14.126 12.174 25.408 26.284 26.284 1.869.116 3.424-1.439 3.424-3.308v-2.861c.016-1.671-1.241-3.077-2.911-3.275z"/></symbol><symbol id="icon-envelope" viewBox="0 0 43 32"><path d="M37.333 0h-32c-2.2 0-3.98 1.8-3.98 4l-.02 24c0 2.2 1.8 4 4 4h32c2.2 0 4-1.8 4-4V4c0-2.2-1.8-4-4-4zm-.8 8.5l-14.14 8.84c-.64.4-1.48.4-2.12 0L6.133 8.5c-.5-.32-.8-.86-.8-1.44 0-1.34 1.46-2.14 2.6-1.44l13.4 8.38 13.4-8.38c1.14-.7 2.6.1 2.6 1.44 0 .58-.3 1.12-.8 1.44z"/></symbol><symbol id="icon-contact" viewBox="0 0 32 32"><path d="M16 16c4.42 0 8-3.58 8-8s-3.58-8-8-8-8 3.58-8 8 3.58 8 8 8zm0 4c-5.34 0-16 2.68-16 8v2c0 1.1.9 2 2 2h28c1.1 0 2-.9 2-2v-2c0-5.32-10.66-8-16-8z"/></symbol><symbol id="icon-close" viewBox="0 0 32 32"><path d="M31.439 3.166L28.273 0 15.72 12.553 3.167 0 .001 3.166l12.553 12.553L.001 28.272l3.166 3.166L15.72 18.885l12.553 12.553 3.166-3.166-12.553-12.553L31.439 3.166z"/></symbol><symbol id="icon-twitter" viewBox="0 0 32 32"><path fill="var(--color1, #fff)" d="M32 6.078c-1.19.522-2.458.868-3.78 1.036a6.523 6.523 0 002.886-3.626 13.11 13.11 0 01-4.16 1.588A6.574 6.574 0 0022.154 3c-3.632 0-6.556 2.948-6.556 6.562 0 .52.044 1.02.152 1.496-5.454-.266-10.28-2.88-13.522-6.862a6.605 6.605 0 00-.898 3.316 6.57 6.57 0 002.914 5.452 6.479 6.479 0 01-2.964-.808v.072c0 3.188 2.274 5.836 5.256 6.446a6.548 6.548 0 01-1.72.216 5.8 5.8 0 01-1.242-.112c.85 2.598 3.262 4.508 6.13 4.57a13.182 13.182 0 01-8.134 2.798c-.538 0-1.054-.024-1.57-.09A18.469 18.469 0 0010.064 29c12.072 0 18.672-10 18.672-18.668 0-.29-.01-.57-.024-.848A13.087 13.087 0 0032 6.078z"/></symbol><symbol id="icon-telegram" viewBox="0 0 32 32"><path fill="var(--color1, #fff)" d="M32 0L0 18l10.227 3.788L26 7 14.002 23.186l.01.004-.012-.004V32l5.735-6.691L27 28l5-28z"/></symbol><symbol id="icon-stars" viewBox="0 0 32 32"><path fill="var(--color2, #2196f3)" d="M31.971 3.301a.603.603 0 00-.486-.409l-2.157-.314-.965-1.955c-.202-.412-.877-.412-1.08 0l-.965 1.955-2.157.314a.603.603 0 00-.335 1.026l1.561 1.522-.369 2.149a.604.604 0 00.874.635l1.929-1.015 1.929 1.015a.608.608 0 00.635-.046.602.602 0 00.239-.589l-.369-2.149 1.561-1.522a.601.601 0 00.152-.617zM29.19 4.8a.603.603 0 00-.173.533l.216 1.258-1.13-.594a.605.605 0 00-.562 0l-1.13.594.216-1.258a.601.601 0 00-.173-.533l-.915-.891 1.263-.184a.6.6 0 00.453-.329l.565-1.144.565 1.144a.6.6 0 00.453.329l1.263.184-.913.891zm-3.814 16.564h-1.204v1.204h1.204v-1.204zm0 2.408h-1.204v1.204h1.204v-1.204zm1.205-1.204h-1.204v1.204h1.204v-1.204zm-2.409 0h-1.204v1.204h1.204v-1.204zm-3.011 5.42h-1.204v1.204h1.204v-1.204zm0 2.408h-1.204V31.6h1.204v-1.204zm1.205-1.204h-1.204v1.204h1.204v-1.204zm-2.409 0h-1.204v1.204h1.204v-1.204zm-6.022-3.613h-1.204v1.204h1.204v-1.204zm0 2.409h-1.204v1.204h1.204v-1.204zm1.205-1.205h-1.204v1.204h1.204v-1.204zm-2.409 0h-1.204v1.204h1.204v-1.204zM2.494 5.105H1.29v1.204h1.204V5.105zm0 2.409H1.29v1.204h1.204V7.514zM3.699 6.31H2.495v1.204h1.204V6.31zm-2.409 0H.086v1.204H1.29V6.31z"/></symbol><symbol id="icon-linkedin" viewBox="0 0 32 32"><path fill="var(--color1, #fff)" d="M31.992 32v-.001H32V20.263c0-5.741-1.236-10.164-7.948-10.164-3.227 0-5.392 1.771-6.276 3.449h-.093v-2.913h-6.364v21.364h6.627V21.42c0-2.785.528-5.479 3.977-5.479 3.399 0 3.449 3.179 3.449 5.657v10.401h6.62zM.528 10.636h6.635V32H.528V10.636zM3.843 0C1.722 0 0 1.721 0 3.843s1.721 3.879 3.843 3.879c2.121 0 3.843-1.757 3.843-3.879A3.846 3.846 0 003.843 0z"/></symbol><symbol id="icon-instagram" viewBox="0 0 32 32"><path fill="var(--color1, #fff)" d="M31.969 9.408c-.075-1.7-.35-2.869-.744-3.882a7.806 7.806 0 00-1.851-2.838A7.867 7.867 0 0026.542.844C25.523.45 24.36.175 22.66.1 20.947.019 20.403 0 16.059 0s-4.888.019-6.595.094c-1.7.075-2.869.35-3.882.744a7.803 7.803 0 00-2.838 1.85A7.867 7.867 0 00.9 5.52C.506 6.539.231 7.702.156 9.402c-.081 1.713-.1 2.257-.1 6.601s.019 4.888.094 6.595c.075 1.7.35 2.869.744 3.882a7.895 7.895 0 001.85 2.838 7.867 7.867 0 002.832 1.844c1.019.394 2.182.669 3.882.744 1.706.075 2.25.094 6.595.094s4.888-.019 6.595-.094c1.7-.075 2.869-.35 3.882-.744a8.184 8.184 0 004.682-4.682c.394-1.019.669-2.182.744-3.882.075-1.707.094-2.251.094-6.595s-.006-4.888-.081-6.595zm-2.882 13.065c-.069 1.563-.331 2.407-.55 2.969a5.31 5.31 0 01-3.038 3.038c-.563.219-1.413.481-2.969.55-1.688.075-2.194.094-6.464.094s-4.782-.019-6.464-.094c-1.563-.069-2.407-.331-2.969-.55a4.926 4.926 0 01-1.838-1.194 4.974 4.974 0 01-1.194-1.838c-.219-.563-.481-1.413-.55-2.969-.075-1.688-.094-2.194-.094-6.464s.019-4.782.094-6.464c.069-1.563.331-2.407.55-2.969a4.868 4.868 0 011.2-1.838A4.974 4.974 0 016.639 3.55c.563-.219 1.413-.481 2.969-.55 1.688-.075 2.194-.094 6.464-.094 4.276 0 4.782.019 6.464.094 1.563.069 2.407.331 2.969.55a4.914 4.914 0 011.838 1.194 4.974 4.974 0 011.194 1.838c.219.563.481 1.413.55 2.969.075 1.688.094 2.194.094 6.464s-.019 4.77-.094 6.458z"/><path fill="var(--color1, #fff)" d="M16.059 7.783c-4.538 0-8.22 3.682-8.22 8.22s3.682 8.22 8.22 8.22c4.539 0 8.22-3.682 8.22-8.22s-3.682-8.22-8.22-8.22zm0 13.552a5.333 5.333 0 010-10.664 5.333 5.333 0 010 10.664zM26.524 7.458a1.919 1.919 0 11-3.838 0 1.919 1.919 0 013.838 0z"/></symbol><symbol id="icon-graph" viewBox="0 0 32 32"><path fill="var(--color2, #2196f3)" d="M18.372 10.19h2.573v11.58h-2.573V10.19zm10.293 5.147h2.573v6.433h-2.573v-6.433zm-20.586 3.86h2.573v2.573H8.079v-2.573zM.358 17.91h2.573v3.86H.358v-3.86z"/></symbol><symbol id="icon-facebook" viewBox="0 0 32 32"><path fill="var(--color1, #fff)" d="M20.529 5.313h2.921V.225C22.946.156 21.213 0 19.194 0c-4.212 0-7.097 2.649-7.097 7.519V12H7.449v5.688h4.648V32h5.699V17.689h4.46l.708-5.688h-5.169V8.082c.001-1.644.444-2.769 2.735-2.769z"/></symbol><symbol id="icon-computer" viewBox="0 0 32 32"><path d="M1.599 28.291h25.587a1.6 1.6 0 001.599-1.599V24.56a1.6 1.6 0 00-1.599-1.599h-.533V9.668L29.681 6.8a1.608 1.608 0 10-.746-.763L26.654 8.2V6.97a1.6 1.6 0 00-1.599-1.599H3.733A1.6 1.6 0 002.134 6.97v15.992h-.533a1.6 1.6 0 00-1.599 1.599v2.132a1.6 1.6 0 001.599 1.599zM30.384 4.837a.533.533 0 110 1.067.533.533 0 010-1.067zM3.198 6.969c0-.294.239-.533.533-.533h21.322c.294 0 .533.239.533.533v2.239l-1.066 1.013V8.035a.533.533 0 00-.533-.533H4.797a.533.533 0 00-.533.533v13.326c0 .294.239.533.533.533h19.19a.533.533 0 00.533-.533v-9.674l1.066-1.01v12.284H3.198V6.969zm4.798 6.93a1.598 1.598 0 101.107 2.749l1.853.93a.532.532 0 00.636-.123l3.939-4.431 3.872 2.901a.533.533 0 00.686-.039l3.365-3.188v8.131H5.33V8.569h18.124v2.66l-3.771 3.572-3.904-2.927a.533.533 0 00-.718.072l-3.993 4.493-1.493-.746c.011-.064.018-.129.02-.193a1.6 1.6 0 00-1.599-1.599zm.533 1.599a.533.533 0 11-1.067 0 .533.533 0 011.067 0zm3.198 8.529h5.331v.533a.533.533 0 01-.533.533h-4.264a.533.533 0 01-.533-.533v-.533zm-10.661.533c0-.294.239-.533.533-.533h9.062v.533a1.6 1.6 0 001.599 1.599h4.264a1.6 1.6 0 001.599-1.599v-.533h9.062c.294 0 .533.239.533.533v2.132a.533.533 0 01-.533.533H1.598a.533.533 0 01-.533-.533V24.56z"/></symbol><symbol id="icon-clock-dots" viewBox="0 0 32 32"><path fill="var(--color2, #2196f3)" d="M15.193 8.553v1.594a.797.797 0 001.594 0V8.553a.797.797 0 00-1.594 0zM.845 22.901a.797.797 0 000 1.594h1.594a.797.797 0 000-1.594H.845zm30.29 1.594a.797.797 0 000-1.594h-1.594a.797.797 0 000 1.594h1.594z"/></symbol><symbol id="icon-clock" viewBox="0 0 31 32"><path d="M30.84 15.301C30.838 6.849 23.985-.002 15.532 0S.229 6.855.231 15.308A15.304 15.304 0 0010.88 29.884a.662.662 0 00.529-.065.637.637 0 00.283-.356l3.865-12.25a1.912 1.912 0 10-.84-3.635L9.611 8.471a.637.637 0 00-.902.902l5.103 5.109a1.876 1.876 0 00.536 2.309l-3.683 11.673C3.387 25.783-.339 17.71 2.342 10.432S13.096-.572 20.374 2.109s11.004 10.754 8.323 18.032a14.042 14.042 0 01-7.462 7.973l-.398-1.874a.638.638 0 00-1.048-.344l-3.837 3.426a.637.637 0 00.231 1.084l4.899 1.563a.638.638 0 00.819-.74l-.391-1.839a15.255 15.255 0 009.329-14.089zm-15.305-.637a.638.638 0 110 1.277.638.638 0 010-1.277zm2.1 14.864l2.184-1.948.603 2.84-2.787-.892z"/></symbol><symbol id="icon-circle" viewBox="0 0 32 32"><path fill="var(--color2, #2196f3)" d="M17.411 1.333h-.042C9.637 1.321 3.36 7.58 3.348 15.312s6.247 14.009 13.979 14.021h.042c7.732.012 14.009-6.247 14.021-13.979S25.143 1.345 17.411 1.333zm3.266 17.309A4.664 4.664 0 0117.368 20a4.666 4.666 0 01-3.267-7.976 4.666 4.666 0 013.267-1.358 4.666 4.666 0 013.266 7.976h.042z"/></symbol><symbol id="icon-ausronaut" viewBox="0 0 32 32"><path d="M29.935 13.626a2.04 2.04 0 00-1.364-.809 2.04 2.04 0 00-1.537.404l-1.437 1.102-2.178 1.626-1.558-.621c2.779-1.247 4.721-4.026 4.721-7.253 0-4.387-3.583-7.956-7.988-7.956s-7.988 3.569-7.988 7.956c0 1.59.476 3.069 1.285 4.313l-3.172-.028h-.005c-.01 0-.018.005-.027.005a.576.576 0 00-.178.036c-.015.005-.03.009-.044.015l-.022.007-3.71 1.832-.001.001-2.173 1.045a.432.432 0 00-.072.04 2.044 2.044 0 00.525 3.654 2.038 2.038 0 001.582-.147l1.593-.847 2.598-1.342 1.557-.009-6.245 6.215-.002.001-1.536 1.53c-.363.361-.562.84-.562 1.351s.2.991.562 1.353c.373.371.863.557 1.353.557s.98-.186 1.354-.557l1.508-1.502 1.998-1.491 1.034 1.029-2.022 2.013-.002.001-1.536 1.53c-.363.361-.562.84-.562 1.351s.2.991.562 1.353c.373.371.864.557 1.354.557s.981-.186 1.354-.557l3.995-3.978.001-.002 1.159-1.148-.004-.004c.007-.007.018-.01.025-.018l5.928-6.493 3.983.567a.611.611 0 00.301-.038c.02-.007.038-.017.057-.027.022-.011.045-.017.066-.031l3.688-2.448c.013-.009.021-.024.034-.034.015-.012.033-.016.046-.029l1.459-1.367a2.041 2.041 0 00.243-2.71zM4.019 17.769a.814.814 0 01-.641.059.819.819 0 01-.244-1.446l1.507-.725.515 1.506-1.138.605zm4.013-2.097l-1.777.918-.504-1.473 2.326-1.148-.045 1.703zm17.327-7.598a6.661 6.661 0 01-.687 2.937l-4.798-2.179a2.136 2.136 0 00-.905-1.593l1.68-5.577c2.729.868 4.71 3.413 4.71 6.412zm-13.528 0c0-3.712 3.034-6.732 6.764-6.732.29 0 .574.024.855.06l-1.643 5.455c-.022-.001-.043-.007-.065-.007-1.185 0-2.149.961-2.149 2.142s.964 2.142 2.149 2.142c.797 0 1.485-.44 1.857-1.084l4.432 2.014a6.761 6.761 0 01-5.436 2.743c-3.73 0-6.764-3.02-6.764-6.732zm6.835.918c0 .506-.415.918-.925.918s-.925-.412-.925-.918.415-.918.925-.918.925.412.925.918zM4.402 26.233a.698.698 0 01-.98.001.682.682 0 010-.968l1.104-1.1.977.973-1.1 1.096zm3.688 4.285a.698.698 0 01-.981.001.682.682 0 010-.968l1.105-1.1.977.973L8.09 30.52zm3.996-3.981l-.002.001-2.025 2.02-.977-.973 2.023-2.014v-.001l.002-.001a.598.598 0 00.103-.155c.008-.016.023-.029.03-.046.019-.047.022-.098.029-.148.004-.028.016-.054.016-.083 0-.041-.015-.081-.023-.121-.007-.037-.007-.074-.021-.11a.596.596 0 00-.105-.158c-.012-.013-.016-.031-.029-.043h-.001l-.001-.002-1.844-1.836c-.02-.02-.045-.028-.067-.044a.596.596 0 00-.1-.066.522.522 0 00-.107-.037.587.587 0 00-.118-.023.585.585 0 00-.11.006.596.596 0 00-.119.023.533.533 0 00-.108.051c-.023.013-.048.017-.07.033l-2.035 1.519L5.393 23.3l2.753-2.738 5.004 4.921-1.064 1.055zm7.824-8.052c-.018-.002-.034.004-.052.003a.65.65 0 00-.233.032.646.646 0 00-.206.124c-.015.013-.032.019-.046.034l-5.391 5.905-4.967-4.885 3.251-3.234a.613.613 0 00-.436-1.045v-.001l-2.546.015.032-1.845 3.562.031a7.973 7.973 0 005.716 2.411c.502 0 .992-.052 1.468-.141.046.037.091.074.149.097l2.765 1.102.175.87.204 1.016-3.446-.49zm4.638.205l-.359-1.788 1.66-1.239 1.086 1.442-2.387 1.585zm4.307-3.249l-.962.901-1.069-1.419.954-.731a.84.84 0 01.623-.164.82.82 0 01.453 1.413z"/><path d="M17.183 18.657l-2.459-2.448a.612.612 0 00-.864 0l-2.458 2.448a.616.616 0 000 .868l2.459 2.448a.61.61 0 00.863 0l2.459-2.448a.615.615 0 000-.868zm-2.891 2.019l-1.591-1.585 1.591-1.585 1.592 1.585-1.592 1.585zm6.978-17.48l-.296 1.189c.081.02 1.994.518 1.994 2.466h1.224c0-2.315-1.911-3.403-2.922-3.654zm2.923 4.878h-1.224v1.224h1.224V8.074z"/></symbol><symbol id="icon-antenna" viewBox="0 0 30 32"><path d="M29.859 22.098l-8.443-8.505.937-4.615c.242.094.499.144.758.146h.006a2.159 2.159 0 10-2.008-1.435l-4.96.605L8.058.161a.534.534 0 00-.377-.16.532.532 0 00-.373.155L5.795 1.66a.534.534 0 000 .754l.814.826a14.943 14.943 0 002.519 17.663.513.513 0 00.146.098c-.034.18-.051.364-.052.547v6.187h-6.4a2.67 2.67 0 00-2.667 2.667v1.067c0 .295.239.533.533.533h24.533a.533.533 0 00.533-.533v-1.067a2.67 2.67 0 00-2.667-2.667h-6.4v-2.742a15.09 15.09 0 003.049.32 14.854 14.854 0 007.04-1.783l.818.823a.534.534 0 00.377.16.532.532 0 00.373-.155l1.513-1.504a.534.534 0 000-.754zM22.366 6.233a1.066 1.066 0 11.752 1.822h-.003a1.067 1.067 0 01-.747-1.823h-.002zM21.11 9.738l-.598 2.946-1.175-1.182 1.774-1.763zm-.606-.902l-1.92 1.909-1.485-1.493 3.405-.415zM23.09 28.8a1.6 1.6 0 011.6 1.6v.533H1.223V30.4a1.6 1.6 0 011.6-1.6H23.09zm-7.467-2.133v1.067H10.29v-1.067h5.333zM10.29 25.6v-4.053c0-1.294 1.196-2.347 2.667-2.347s2.667 1.053 2.667 2.347V25.6h-5.333zm6.4-1.696v-2.357c0-1.882-1.675-3.413-3.733-3.413a3.8 3.8 0 00-3.281 1.786A13.87 13.87 0 017.397 4.033l18.602 18.708a13.818 13.818 0 01-9.309 1.163zm11.289-.684L6.922 2.039l.755-.752 7.935 7.98c.004 0 .006.007.01.01l13.115 13.191-.757.752z"/></symbol></defs></svg>